# xmcd CD database file
#
# Track frame offsets:
#	182
#	13845
#	31312
#	42730
#	59022
#	76875
#	91645
#	109420
#	125905
#	141347
#
# Disc length: 2050 seconds
#
# Revision: 3
# Processed by: cddbd v1.5.2PL0 Copyright (c) Steve Scherf et al.
# Submitted via: CDex 1.70beta2
#
DISCID=8f08000a
DTITLE=Various Artist - Billboard Top Country Hits - 1989
DYEAR=1993
DGENRE=Country
TTITLE0=Shenandoah - The Church on Cumberland Road
TTITLE1=Steve Wariner - I got Dreams
TTITLE2=Patty Loveless - Timber, I'm Falling in Love
TTITLE3=Keith Whitley - I'm No Stranger to the Rain
TTITLE4=Randy Travis - It's Just a Matter of Time
TTITLE5=Ronnie Milsap - A Woman in Love
TTITLE6=Dolly Parton - Yellow Roses
TTITLE7=Eddie Rabbitt - On Second Thought
TTITLE8=Highway 101 - Who's Lonely Now
TTITLE9=Eddy Raven - Bayou Boys
EXTD=YEAR: 1993
EXTT0=
EXTT1=
EXTT2=
EXTT3=
EXTT4=
EXTT5=
EXTT6=
EXTT7=
EXTT8=
EXTT9=
PLAYORDER=
